<svg width="220" height="220" viewBox="0 0 220 220" fill="none" xmlns="http://www.w3.org/2000/svg">
<g clip-path="url(#clip0)">
<path d="M109.575 -1.94987e-06C49.156 -7.23187e-06 0.0019985 49.156 0.00199322 109.576C0.00198794 169.995 49.156 219.151 109.575 219.151C169.994 219.151 219.149 169.995 219.149 109.576C219.149 49.156 169.994 3.33213e-06 109.575 -1.94987e-06ZM109.575 204.151C57.427 204.151 15.002 161.725 15.001 109.576C15.001 57.427 57.426 15.001 109.575 15C161.723 15.001 204.148 57.427 204.148 109.577C204.148 161.724 161.723 204.151 109.575 204.151Z" fill="black"/>
<path d="M124.29 62.644C121.361 59.716 116.612 59.717 113.684 62.644C110.754 65.574 110.754 70.322 113.685 73.252L142.505 102.071L59.048 102.079C54.906 102.08 51.549 105.437 51.549 109.581C51.55 113.723 54.907 117.079 59.049 117.079L142.509 117.071L113.682 145.896C110.753 148.825 110.753 153.575 113.682 156.503C115.147 157.967 117.066 158.7 118.986 158.7C120.905 158.7 122.824 157.967 124.289 156.504L165.918 114.876C167.325 113.47 168.115 111.563 168.115 109.573C168.114 107.583 167.324 105.677 165.917 104.268L124.29 62.644Z" fill="black"/>
</g>
<defs>
<clipPath id="clip0">
<rect width="219.151" height="219.151" fill="white" transform="translate(219.151 219.151) rotate(-180)"/>
</clipPath>
</defs>
</svg>
