<svg width="56" height="13" viewBox="0 0 56 13" fill="none" xmlns="http://www.w3.org/2000/svg">
<path d="M11.93 2.9L14.25 6.72L16.59 2.9H17.35L14.6 7.36V10H13.9V7.34L11.16 2.9H11.93ZM19.5657 10.1C19.0657 10.1 18.619 9.97667 18.2257 9.73C17.839 9.48333 17.5357 9.15667 17.3157 8.75C17.0957 8.33667 16.9857 7.89 16.9857 7.41C16.9857 6.92333 17.0957 6.47667 17.3157 6.07C17.5424 5.65667 17.849 5.32667 18.2357 5.08C18.629 4.82667 19.0724 4.7 19.5657 4.7C20.0657 4.7 20.509 4.82667 20.8957 5.08C21.289 5.32667 21.5957 5.65667 21.8157 6.07C22.0424 6.47667 22.1557 6.92333 22.1557 7.41C22.1557 7.89 22.0457 8.33667 21.8257 8.75C21.6057 9.15667 21.299 9.48333 20.9057 9.73C20.519 9.97667 20.0724 10.1 19.5657 10.1ZM17.6757 7.42C17.6757 7.80667 17.759 8.16 17.9257 8.48C18.099 8.79333 18.329 9.04333 18.6157 9.23C18.9024 9.41 19.219 9.5 19.5657 9.5C19.9124 9.5 20.229 9.40667 20.5157 9.22C20.8024 9.03333 21.0324 8.78 21.2057 8.46C21.379 8.14 21.4657 7.78667 21.4657 7.4C21.4657 7.01333 21.379 6.66 21.2057 6.34C21.0324 6.02 20.8024 5.76667 20.5157 5.58C20.229 5.39333 19.9124 5.3 19.5657 5.3C19.2257 5.3 18.9124 5.39667 18.6257 5.59C18.339 5.77667 18.109 6.03 17.9357 6.35C17.7624 6.67 17.6757 7.02667 17.6757 7.42ZM23.4551 5.33H22.7351V4.79H23.4551V4.65C23.4551 4.32333 23.5184 4.00333 23.6451 3.69C23.7784 3.37667 23.9784 3.11667 24.2451 2.91C24.5184 2.70333 24.8684 2.6 25.2951 2.6C25.6617 2.6 25.9751 2.65667 26.2351 2.77C26.5017 2.88333 26.6917 2.98333 26.8051 3.07L26.4951 3.56C26.3817 3.46 26.2217 3.37667 26.0151 3.31C25.8084 3.23667 25.5817 3.2 25.3351 3.2C25.0484 3.2 24.8184 3.27333 24.6451 3.42C24.4717 3.56 24.3417 3.74 24.2551 3.96C24.1751 4.18 24.1351 4.40333 24.1351 4.63V4.79H26.7451V10H26.0651V5.33H24.1351V10H23.4551V5.33ZM30.7441 9.75C30.6641 9.78333 30.5175 9.84333 30.3041 9.93C30.0908 10.0167 29.8441 10.06 29.5641 10.06C29.2708 10.06 29.0141 9.97667 28.7941 9.81C28.5741 9.64333 28.4641 9.39333 28.4641 9.06V5.33H27.7441V4.79H28.4641V3.03H29.1441V4.79H30.3441V5.33H29.1441V8.87C29.1575 9.06333 29.2241 9.20667 29.3441 9.3C29.4708 9.38667 29.6141 9.43 29.7741 9.43C29.9608 9.43 30.1275 9.4 30.2741 9.34C30.4275 9.27333 30.5241 9.22667 30.5641 9.2L30.7441 9.75ZM37.1326 10.05C36.6526 10.05 36.2092 9.95 35.8026 9.75C35.4026 9.54333 35.0526 9.26667 34.7526 8.92C34.4526 8.57333 34.2192 8.18667 34.0526 7.76C33.8926 7.32667 33.8126 6.88667 33.8126 6.44C33.8126 5.96667 33.8926 5.51667 34.0526 5.09C34.2192 4.65667 34.4492 4.27333 34.7426 3.94C35.0359 3.6 35.3826 3.33333 35.7826 3.14C36.1826 2.94667 36.6192 2.85 37.0926 2.85C37.7926 2.85 38.3626 2.99333 38.8026 3.28C39.2426 3.56667 39.5759 3.94 39.8026 4.4L39.2626 4.76C39.0359 4.32 38.7326 3.99667 38.3526 3.79C37.9726 3.58333 37.5492 3.48 37.0826 3.48C36.6892 3.48 36.3326 3.56333 36.0126 3.73C35.6992 3.89667 35.4292 4.12 35.2026 4.4C34.9826 4.68 34.8126 4.99667 34.6926 5.35C34.5726 5.70333 34.5126 6.07 34.5126 6.45C34.5126 6.85 34.5792 7.23 34.7126 7.59C34.8459 7.94333 35.0326 8.26 35.2726 8.54C35.5192 8.81333 35.8026 9.03 36.1226 9.19C36.4492 9.34333 36.8026 9.42 37.1826 9.42C37.5892 9.42 37.9759 9.32333 38.3426 9.13C38.7159 8.93667 39.0726 8.63667 39.4126 8.23V7.05H37.8326V6.51H40.0026V10H39.4126V8.96C38.7592 9.68667 37.9992 10.05 37.1326 10.05ZM41.5129 11.6C41.6062 11.6067 41.6962 11.61 41.7829 11.61C41.8696 11.6167 41.9329 11.6133 41.9729 11.6C42.0529 11.5933 42.1262 11.5467 42.1929 11.46C42.2662 11.38 42.3529 11.2267 42.4529 11C42.5596 10.78 42.7029 10.4467 42.8829 10L40.6129 4.79H41.3329L43.2429 9.3L45.0029 4.79H45.6829L42.9829 11.51C42.9096 11.7033 42.7862 11.87 42.6129 12.01C42.4396 12.15 42.2096 12.2233 41.9229 12.23C41.8629 12.2367 41.7996 12.2367 41.7329 12.23C41.6662 12.23 41.5929 12.2233 41.5129 12.21V11.6ZM54.3828 10H53.7028V7.09C53.7028 6.49 53.6061 6.04667 53.4128 5.76C53.2195 5.46667 52.9328 5.32 52.5528 5.32C52.1528 5.32 51.7995 5.46 51.4928 5.74C51.1861 6.02 50.9695 6.38 50.8428 6.82V10H50.1628V7.09C50.1628 6.47667 50.0661 6.03 49.8728 5.75C49.6861 5.46333 49.4028 5.32 49.0228 5.32C48.6295 5.32 48.2761 5.45667 47.9628 5.73C47.6561 6.00333 47.4395 6.36333 47.3128 6.81V10H46.6328V4.79H47.2528V5.97C47.4661 5.57 47.7461 5.26 48.0928 5.04C48.4395 4.81333 48.8228 4.7 49.2428 4.7C49.6761 4.7 50.0261 4.82667 50.2928 5.08C50.5595 5.32667 50.7228 5.64667 50.7828 6.04C51.2628 5.14667 51.9328 4.7 52.7928 4.7C53.3795 4.7 53.7895 4.90667 54.0228 5.32C54.2628 5.72667 54.3828 6.27 54.3828 6.95V10Z" fill="white"/>
<g clip-path="url(#clip0)">
<path d="M9.7437 3.74328L9.12216 3.12174L9.7437 2.5002C9.85811 2.38576 9.85811 2.20027 9.7437 2.08584L8.91499 1.25715C8.80068 1.14281 8.61505 1.14276 8.50064 1.25715L7.87908 1.87869L7.25755 1.25715C6.91486 0.914436 6.3572 0.914456 6.01451 1.25715L5.77207 1.49959C5.44734 1.34414 5.04353 1.39944 4.77146 1.67151L4.35709 2.08586C4.24275 2.20016 4.24266 2.3858 4.35709 2.50021L5.80734 3.95045L2.9511 6.80673L1.50084 5.35648C1.38651 5.24214 1.20088 5.24209 1.08649 5.35648L0.672153 5.77081C0.402056 6.04089 0.345006 6.44441 0.500611 6.77107L0.257799 7.01388C-0.0849156 7.35659 -0.0849156 7.91423 0.257799 8.25694L0.879341 8.87849L0.257799 9.50003C0.143365 9.61444 0.143365 9.79995 0.257799 9.91438L1.08649 10.7431C1.20082 10.8574 1.38645 10.8575 1.50084 10.7431L2.12239 10.1216L2.74395 10.7431C3.08664 11.0858 3.64428 11.0858 3.98699 10.7431L4.22945 10.5007C4.55418 10.6561 4.95799 10.6008 5.23006 10.3288L5.64443 9.9144C5.75875 9.80007 5.75884 9.61446 5.64443 9.50005L4.19418 8.0498L7.05042 5.19355L8.50068 6.6438C8.61499 6.75814 8.80064 6.7582 8.91503 6.6438L9.32939 6.22945C9.59948 5.95937 9.65653 5.55585 9.50093 5.22919L9.74374 4.98638C10.0864 4.64361 10.0864 4.08599 9.7437 3.74328ZM8.70784 1.87869L9.1222 2.29305L8.70784 2.70742L8.29347 2.29307L8.70784 1.87869ZM1.29368 10.1215L0.879321 9.70718L1.29368 9.29282L1.70803 9.70718L1.29368 10.1215ZM3.57262 10.3287C3.4584 10.443 3.27252 10.4429 3.15828 10.3287L0.672153 7.84259C0.557915 7.72837 0.557915 7.54247 0.672153 7.42823L0.879321 7.22107L3.7798 10.1215L3.57262 10.3287ZM5.02287 9.70721L4.81568 9.91436C4.70115 10.0289 4.51586 10.0289 4.40133 9.91436L1.08651 6.59954C0.971997 6.48503 0.971997 6.29972 1.08651 6.18519L1.29368 5.97802C1.42264 6.10701 4.95791 9.64223 5.02287 9.70721ZM3.7798 7.63542L3.36545 7.22107L6.22169 4.3648L6.63605 4.77916L3.7798 7.63542ZM8.91499 5.81505L8.70782 6.02222L6.4289 3.74332L6.42888 3.7433L6.42886 3.74328L4.97865 2.29309L5.18582 2.0859C5.30031 1.97141 5.48564 1.97135 5.60017 2.0859L8.91501 5.40074C9.02952 5.51521 9.02952 5.70054 8.91499 5.81505ZM9.32935 4.57199L9.12218 4.77916L6.22169 1.87869L6.42888 1.67152C6.54314 1.55729 6.72896 1.55729 6.84324 1.67152L9.32935 4.15763C9.4436 4.27187 9.4436 4.45777 9.32935 4.57199Z" fill="white"/>
</g>
<defs>
<clipPath id="clip0">
<rect width="10" height="10" fill="white" transform="translate(0 1)"/>
</clipPath>
</defs>
</svg>
